solid OpenSCAD_Model
  facet normal -1 0 0
    outer loop
      vertex -31.275 -34.25 -3.75
      vertex -31.275 34.25 3.75
      vertex -31.275 34.25 -3.75
    endloop
  endfacet
  facet normal -1 -0 0
    outer loop
      vertex -31.275 34.25 3.75
      vertex -31.275 -34.25 -3.75
      vertex -31.275 -34.25 3.75
    endloop
  endfacet
  facet normal 0 0 1
    outer loop
      vertex 71.275 34.25 3.75
      vertex 68.775 31.75 3.75
      vertex 71.275 -34.25 3.75
    endloop
  endfacet
  facet normal 0 0 1
    outer loop
      vertex 71.275 34.25 3.75
      vertex -28.775 31.75 3.75
      vertex 68.775 31.75 3.75
    endloop
  endfacet
  facet normal 0 0 1
    outer loop
      vertex -28.775 31.75 3.75
      vertex -31.275 34.25 3.75
      vertex -28.775 -31.75 3.75
    endloop
  endfacet
  facet normal -0 0 1
    outer loop
      vertex -31.275 34.25 3.75
      vertex -28.775 31.75 3.75
      vertex 71.275 34.25 3.75
    endloop
  endfacet
  facet normal -0 0 1
    outer loop
      vertex 68.775 -31.75 3.75
      vertex 71.275 -34.25 3.75
      vertex 68.775 31.75 3.75
    endloop
  endfacet
  facet normal -0 0 1
    outer loop
      vertex -28.775 -31.75 3.75
      vertex 71.275 -34.25 3.75
      vertex 68.775 -31.75 3.75
    endloop
  endfacet
  facet normal 0 0 1
    outer loop
      vertex -28.775 -31.75 3.75
      vertex -31.275 -34.25 3.75
      vertex 71.275 -34.25 3.75
    endloop
  endfacet
  facet normal 0 0 1
    outer loop
      vertex -31.275 -34.25 3.75
      vertex -28.775 -31.75 3.75
      vertex -31.275 34.25 3.75
    endloop
  endfacet
  facet normal 1 -0 0
    outer loop
      vertex 71.275 -34.25 3.75
      vertex 71.275 34.25 -3.75
      vertex 71.275 34.25 3.75
    endloop
  endfacet
  facet normal 1 0 0
    outer loop
      vertex 71.275 34.25 -3.75
      vertex 71.275 -34.25 3.75
      vertex 71.275 -34.25 -3.75
    endloop
  endfacet
  facet normal 0 1 -0
    outer loop
      vertex 71.275 34.25 -3.75
      vertex -31.275 34.25 3.75
      vertex 71.275 34.25 3.75
    endloop
  endfacet
  facet normal 0 1 0
    outer loop
      vertex -31.275 34.25 3.75
      vertex 71.275 34.25 -3.75
      vertex -31.275 34.25 -3.75
    endloop
  endfacet
  facet normal 0 0 -1
    outer loop
      vertex 71.275 -34.25 -3.75
      vertex 25 -5 -3.75
      vertex 71.275 34.25 -3.75
    endloop
  endfacet
  facet normal 0 0 -1
    outer loop
      vertex 71.275 -34.25 -3.75
      vertex 15 -5 -3.75
      vertex 25 -5 -3.75
    endloop
  endfacet
  facet normal -0 0 -1
    outer loop
      vertex 15 -5 -3.75
      vertex -31.275 -34.25 -3.75
      vertex 15 5 -3.75
    endloop
  endfacet
  facet normal 0 0 -1
    outer loop
      vertex -31.275 -34.25 -3.75
      vertex 15 -5 -3.75
      vertex 71.275 -34.25 -3.75
    endloop
  endfacet
  facet normal 0 0 -1
    outer loop
      vertex 25 5 -3.75
      vertex 71.275 34.25 -3.75
      vertex 25 -5 -3.75
    endloop
  endfacet
  facet normal 0 0 -1
    outer loop
      vertex 15 5 -3.75
      vertex 71.275 34.25 -3.75
      vertex 25 5 -3.75
    endloop
  endfacet
  facet normal 0 0 -1
    outer loop
      vertex 15 5 -3.75
      vertex -31.275 34.25 -3.75
      vertex 71.275 34.25 -3.75
    endloop
  endfacet
  facet normal 0 0 -1
    outer loop
      vertex -31.275 34.25 -3.75
      vertex 15 5 -3.75
      vertex -31.275 -34.25 -3.75
    endloop
  endfacet
  facet normal 0 -1 0
    outer loop
      vertex -31.275 -34.25 -3.75
      vertex 71.275 -34.25 3.75
      vertex -31.275 -34.25 3.75
    endloop
  endfacet
  facet normal 0 -1 -0
    outer loop
      vertex 71.275 -34.25 3.75
      vertex -31.275 -34.25 -3.75
      vertex 71.275 -34.25 -3.75
    endloop
  endfacet
  facet normal 1 -0 0
    outer loop
      vertex -28.775 -31.75 3.75
      vertex -28.775 31.75 2.35
      vertex -28.775 31.75 3.75
    endloop
  endfacet
  facet normal 1 0 0
    outer loop
      vertex -28.775 31.75 2.35
      vertex -28.775 -31.75 3.75
      vertex -28.775 -31.75 2.35
    endloop
  endfacet
  facet normal -1 0 0
    outer loop
      vertex 68.775 -31.75 2.35
      vertex 68.775 31.75 3.75
      vertex 68.775 31.75 2.35
    endloop
  endfacet
  facet normal -1 -0 0
    outer loop
      vertex 68.775 31.75 3.75
      vertex 68.775 -31.75 2.35
      vertex 68.775 -31.75 3.75
    endloop
  endfacet
  facet normal 0 -1 0
    outer loop
      vertex -28.775 31.75 2.35
      vertex 68.775 31.75 3.75
      vertex -28.775 31.75 3.75
    endloop
  endfacet
  facet normal 0 -1 -0
    outer loop
      vertex 68.775 31.75 3.75
      vertex -28.775 31.75 2.35
      vertex 68.775 31.75 2.35
    endloop
  endfacet
  facet normal -0 0 1
    outer loop
      vertex -28.775 31.75 2.35
      vertex 68.775 -31.75 2.35
      vertex 68.775 31.75 2.35
    endloop
  endfacet
  facet normal 0 0 1
    outer loop
      vertex 68.775 -31.75 2.35
      vertex -28.775 31.75 2.35
      vertex -28.775 -31.75 2.35
    endloop
  endfacet
  facet normal 0 1 -0
    outer loop
      vertex 68.775 -31.75 2.35
      vertex -28.775 -31.75 3.75
      vertex 68.775 -31.75 3.75
    endloop
  endfacet
  facet normal 0 1 0
    outer loop
      vertex -28.775 -31.75 3.75
      vertex 68.775 -31.75 2.35
      vertex -28.775 -31.75 2.35
    endloop
  endfacet
  facet normal 1 -0 0
    outer loop
      vertex 15 -5 1.745
      vertex 15 5 -3.75
      vertex 15 5 1.745
    endloop
  endfacet
  facet normal 1 0 0
    outer loop
      vertex 15 5 -3.75
      vertex 15 -5 1.745
      vertex 15 -5 -3.75
    endloop
  endfacet
  facet normal 0 0 -1
    outer loop
      vertex 15 -5 1.745
      vertex 25 5 1.745
      vertex 25 -5 1.745
    endloop
  endfacet
  facet normal -0 0 -1
    outer loop
      vertex 25 5 1.745
      vertex 15 -5 1.745
      vertex 15 5 1.745
    endloop
  endfacet
  facet normal -1 0 0
    outer loop
      vertex 25 -5 -3.75
      vertex 25 5 1.745
      vertex 25 5 -3.75
    endloop
  endfacet
  facet normal -1 -0 0
    outer loop
      vertex 25 5 1.745
      vertex 25 -5 -3.75
      vertex 25 -5 1.745
    endloop
  endfacet
  facet normal 0 -1 0
    outer loop
      vertex 15 5 -3.75
      vertex 25 5 1.745
      vertex 15 5 1.745
    endloop
  endfacet
  facet normal 0 -1 -0
    outer loop
      vertex 25 5 1.745
      vertex 15 5 -3.75
      vertex 25 5 -3.75
    endloop
  endfacet
  facet normal 0 1 -0
    outer loop
      vertex 25 -5 -3.75
      vertex 15 -5 1.745
      vertex 25 -5 1.745
    endloop
  endfacet
  facet normal 0 1 0
    outer loop
      vertex 15 -5 1.745
      vertex 25 -5 -3.75
      vertex 15 -5 -3.75
    endloop
  endfacet
endsolid OpenSCAD_Model
